<svg xmlns="http://www.w3.org/2000/svg" width="800" height="500" viewBox="0 0 800 500">
  <defs>
    <clipPath id="artwork-clip-1"><rect x="0" y="0" width="40" height="40" rx="3"/></clipPath>
    <clipPath id="artwork-clip-2"><rect x="0" y="0" width="40" height="40" rx="3"/></clipPath>
    <clipPath id="artwork-clip-3"><rect x="0" y="0" width="40" height="40" rx="3"/></clipPath>
    <clipPath id="artwork-clip-4"><rect x="0" y="0" width="40" height="40" rx="3"/></clipPath>
    <clipPath id="artwork-clip-5"><rect x="0" y="0" width="40" height="40" rx="3"/></clipPath>
    <clipPath id="artwork-clip-6"><rect x="0" y="0" width="40" height="40" rx="3"/></clipPath>
    <clipPath id="roundedleft"><rect x="0" y="0" width="240" height="500" rx="0"/></clipPath>
  </defs>

  <!-- ── Main background ── -->
  <rect width="800" height="500" fill="#121212"/>

  <!-- ════════════════════════════════════════════════
       LEFT PANEL — SpiceCloud sidebar app (240px)
  ════════════════════════════════════════════════ -->
  <rect x="0" y="0" width="240" height="500" fill="#000"/>
  <!-- subtle right border -->
  <rect x="239" y="0" width="1" height="500" fill="#282828"/>

  <!-- App header -->
  <rect x="0" y="0" width="240" height="64" fill="#000"/>

  <!-- SC Logo in header (simplified path) -->
  <g transform="translate(16, 17) scale(1.25)">
    <path d="M23.999 14.165c-.052 1.796-1.612 3.169-3.4 3.169h-8.18a.68.68 0 0 1-.675-.683V7.862a.747.747 0 0 1 .452-.724s.75-.513 2.333-.513a5.364 5.364 0 0 1 2.763.755 5.433 5.433 0 0 1 2.57 3.54c.282-.08.574-.121.868-.12.884 0 1.73.358 2.347.992s.948 1.49.922 2.373ZM10.721 8.421c.247 2.98.427 5.697 0 8.672a.264.264 0 0 1-.53 0c-.395-2.946-.22-5.718 0-8.672a.264.264 0 0 1 .53 0ZM9.072 9.448c.285 2.659.37 4.986-.006 7.655a.277.277 0 0 1-.55 0c-.331-2.63-.256-5.02 0-7.655a.277.277 0 0 1 .556 0Zm-1.663-.257c.27 2.726.39 5.171 0 7.904a.266.266 0 0 1-.532 0c-.38-2.69-.257-5.21 0-7.904a.266.266 0 0 1 .532 0Zm-1.647.77a26.108 26.108 0 0 1-.008 7.147.272.272 0 0 1-.542 0 27.955 27.955 0 0 1 0-7.147.275.275 0 0 1 .55 0Zm-1.67 1.769c.421 1.865.228 3.5-.029 5.388a.257.257 0 0 1-.514 0c-.21-1.858-.398-3.549 0-5.389a.272.272 0 0 1 .543 0Zm-1.655-.273c.388 1.897.26 3.508-.01 5.412-.026.28-.514.283-.54 0-.244-1.878-.347-3.54-.01-5.412a.283.283 0 0 1 .56 0Zm-1.668.911c.4 1.268.257 2.292-.026 3.572a.257.257 0 0 1-.514 0c-.241-1.262-.354-2.312-.023-3.572a.283.283 0 0 1 .563 0Z" fill="#ff5500"/>
  </g>
  <text x="54" y="38" font-family="sans-serif" font-size="16" font-weight="700" fill="#ffffff">SpiceCloud</text>
  <text x="54" y="54" font-family="sans-serif" font-size="11" fill="#b3b3b3">SoundCloud inside Spotify</text>

  <!-- Nav tabs -->
  <rect x="0" y="64" width="240" height="40" fill="#111"/>
  <!-- Active: Feed -->
  <rect x="8" y="72" width="44" height="26" rx="13" fill="#ff5500"/>
  <text x="30" y="90" font-family="sans-serif" font-size="11" font-weight="600" fill="#fff" text-anchor="middle">Feed</text>
  <text x="76" y="90" font-family="sans-serif" font-size="11" fill="#b3b3b3" text-anchor="middle">Search</text>
  <text x="124" y="90" font-family="sans-serif" font-size="11" fill="#b3b3b3" text-anchor="middle">Liked</text>
  <text x="165" y="90" font-family="sans-serif" font-size="11" fill="#b3b3b3" text-anchor="middle">Sets</text>
  <text x="207" y="90" font-family="sans-serif" font-size="11" fill="#b3b3b3" text-anchor="middle">Settings</text>

  <!-- Feed track rows -->
  <!-- Track 1 -->
  <rect x="12" y="116" width="40" height="40" rx="3" fill="#e84c3d"/>
  <text x="32" y="141" font-family="sans-serif" font-size="16" fill="#fff" text-anchor="middle" opacity="0.7">♪</text>
  <text x="60" y="131" font-family="sans-serif" font-size="12" font-weight="600" fill="#fff">Midnight Drive</text>
  <text x="60" y="148" font-family="sans-serif" font-size="11" fill="#b3b3b3">Lofi Dreamer</text>
  <text x="225" y="131" font-family="sans-serif" font-size="11" fill="#b3b3b3" text-anchor="end">4:23</text>

  <!-- Track 2 -->
  <rect x="12" y="166" width="40" height="40" rx="3" fill="#2980b9"/>
  <text x="32" y="191" font-family="sans-serif" font-size="16" fill="#fff" text-anchor="middle" opacity="0.7">♪</text>
  <text x="60" y="181" font-family="sans-serif" font-size="12" font-weight="600" fill="#fff">Rain &amp; Coffee</text>
  <text x="60" y="198" font-family="sans-serif" font-size="11" fill="#b3b3b3">sleepymountain</text>
  <text x="225" y="181" font-family="sans-serif" font-size="11" fill="#b3b3b3" text-anchor="end">6:11</text>

  <!-- Track 3 -->
  <rect x="12" y="216" width="40" height="40" rx="3" fill="#8e44ad"/>
  <text x="32" y="241" font-family="sans-serif" font-size="16" fill="#fff" text-anchor="middle" opacity="0.7">♪</text>
  <text x="60" y="231" font-family="sans-serif" font-size="12" font-weight="600" fill="#fff">City Nights</text>
  <text x="60" y="248" font-family="sans-serif" font-size="11" fill="#b3b3b3">nujabes</text>
  <text x="225" y="231" font-family="sans-serif" font-size="11" fill="#b3b3b3" text-anchor="end">5:47</text>

  <!-- Track 4 -->
  <rect x="12" y="266" width="40" height="40" rx="3" fill="#27ae60"/>
  <text x="32" y="291" font-family="sans-serif" font-size="16" fill="#fff" text-anchor="middle" opacity="0.7">♪</text>
  <text x="60" y="281" font-family="sans-serif" font-size="12" font-weight="600" fill="#fff">Study Session</text>
  <text x="60" y="298" font-family="sans-serif" font-size="11" fill="#b3b3b3">lo-fi.beats</text>
  <text x="225" y="281" font-family="sans-serif" font-size="11" fill="#b3b3b3" text-anchor="end">3:58</text>

  <!-- Track 5 -->
  <rect x="12" y="316" width="40" height="40" rx="3" fill="#d35400"/>
  <text x="32" y="341" font-family="sans-serif" font-size="16" fill="#fff" text-anchor="middle" opacity="0.7">♪</text>
  <text x="60" y="331" font-family="sans-serif" font-size="12" font-weight="600" fill="#fff">Jazz Mornings</text>
  <text x="60" y="348" font-family="sans-serif" font-size="11" fill="#b3b3b3">collegestudent</text>
  <text x="225" y="331" font-family="sans-serif" font-size="11" fill="#b3b3b3" text-anchor="end">4:05</text>

  <!-- Now-playing bar at bottom of sidebar -->
  <rect x="0" y="448" width="240" height="52" fill="#1a1a1a"/>
  <rect x="0" y="448" width="240" height="1" fill="#333"/>
  <!-- Playing indicator dot -->
  <circle cx="16" cy="474" r="5" fill="#ff5500"/>
  <!-- SC logo tiny -->
  <rect x="26" y="461" width="26" height="26" rx="3" fill="#e84c3d"/>
  <text x="39" y="479" font-family="sans-serif" font-size="11" fill="#fff" text-anchor="middle" opacity="0.7">♪</text>
  <text x="58" y="471" font-family="sans-serif" font-size="11" font-weight="600" fill="#fff">Midnight Drive</text>
  <text x="58" y="484" font-family="sans-serif" font-size="10" fill="#b3b3b3">Lofi Dreamer</text>


  <!-- ════════════════════════════════════════════════
       RIGHT PANEL — Spotify search page (560px)
  ════════════════════════════════════════════════ -->

  <!-- Spotify top bar -->
  <rect x="240" y="0" width="560" height="56" fill="#121212"/>
  <!-- Search box -->
  <rect x="264" y="12" width="300" height="32" rx="16" fill="#242424"/>
  <text x="320" y="33" font-family="sans-serif" font-size="13" fill="#b3b3b3">lofi hip hop</text>
  <!-- Search icon -->
  <circle cx="284" cy="28" r="7" fill="none" stroke="#b3b3b3" stroke-width="1.5"/>
  <line x1="289" y1="33" x2="294" y2="38" stroke="#b3b3b3" stroke-width="1.5" stroke-linecap="round"/>

  <!-- Filter chips -->
  <rect x="264" y="56" width="36" height="26" rx="13" fill="#fff"/>
  <text x="282" y="73" font-family="sans-serif" font-size="11" font-weight="600" fill="#000" text-anchor="middle">All</text>
  <rect x="308" y="56" width="58" height="26" rx="13" fill="#333"/>
  <text x="337" y="73" font-family="sans-serif" font-size="11" fill="#fff" text-anchor="middle">Artists</text>
  <rect x="374" y="56" width="50" height="26" rx="13" fill="#333"/>
  <text x="399" y="73" font-family="sans-serif" font-size="11" fill="#fff" text-anchor="middle">Songs</text>
  <rect x="432" y="56" width="60" height="26" rx="13" fill="#333"/>
  <text x="462" y="73" font-family="sans-serif" font-size="11" fill="#fff" text-anchor="middle">Albums</text>

  <!-- ── Spotify Songs section ── -->
  <text x="264" y="116" font-family="sans-serif" font-size="20" font-weight="700" fill="#fff">Songs</text>

  <!-- Spotify track 1 -->
  <rect x="264" y="126" width="40" height="40" rx="3" fill="#c0392b"/>
  <text x="284" y="151" font-family="sans-serif" font-size="16" fill="#fff" text-anchor="middle" opacity="0.6">♪</text>
  <!-- Spotify badge -->
  <g transform="translate(312, 130)">
    <circle cx="7" cy="7" r="7" fill="#1db954"/>
    <path d="M3.5 5.5 Q7 4 10.5 5.5 M3 7.5 Q7 6 11 7.5 M4 9.5 Q7 8 10 9.5" stroke="#000" stroke-width="1.2" fill="none" stroke-linecap="round"/>
  </g>
  <text x="328" y="139" font-family="sans-serif" font-size="13" font-weight="600" fill="#fff">lofi hip hop study beats</text>
  <text x="328" y="157" font-family="sans-serif" font-size="11" fill="#b3b3b3">Lofi Girl</text>
  <text x="770" y="139" font-family="sans-serif" font-size="11" fill="#b3b3b3" text-anchor="end">3:45</text>

  <!-- Spotify track 2 -->
  <rect x="264" y="176" width="40" height="40" rx="3" fill="#16a085"/>
  <text x="284" y="201" font-family="sans-serif" font-size="16" fill="#fff" text-anchor="middle" opacity="0.6">♪</text>
  <g transform="translate(312, 180)">
    <circle cx="7" cy="7" r="7" fill="#1db954"/>
    <path d="M3.5 5.5 Q7 4 10.5 5.5 M3 7.5 Q7 6 11 7.5 M4 9.5 Q7 8 10 9.5" stroke="#000" stroke-width="1.2" fill="none" stroke-linecap="round"/>
  </g>
  <text x="328" y="189" font-family="sans-serif" font-size="13" font-weight="600" fill="#fff">Coffee Shop Ambience</text>
  <text x="328" y="207" font-family="sans-serif" font-size="11" fill="#b3b3b3">Chilled Cow</text>
  <text x="770" y="189" font-family="sans-serif" font-size="11" fill="#b3b3b3" text-anchor="end">5:20</text>

  <!-- Spotify track 3 -->
  <rect x="264" y="226" width="40" height="40" rx="3" fill="#7f8c8d"/>
  <text x="284" y="251" font-family="sans-serif" font-size="16" fill="#fff" text-anchor="middle" opacity="0.6">♪</text>
  <g transform="translate(312, 230)">
    <circle cx="7" cy="7" r="7" fill="#1db954"/>
    <path d="M3.5 5.5 Q7 4 10.5 5.5 M3 7.5 Q7 6 11 7.5 M4 9.5 Q7 8 10 9.5" stroke="#000" stroke-width="1.2" fill="none" stroke-linecap="round"/>
  </g>
  <text x="328" y="239" font-family="sans-serif" font-size="13" font-weight="600" fill="#fff">Rainy Day Mix</text>
  <text x="328" y="257" font-family="sans-serif" font-size="11" fill="#b3b3b3">Study Playlist</text>
  <text x="770" y="239" font-family="sans-serif" font-size="11" fill="#b3b3b3" text-anchor="end">4:12</text>

  <!-- divider -->
  <rect x="264" y="276" width="516" height="1" fill="#2a2a2a"/>

  <!-- ── SoundCloud section injected by SpiceCloud ── -->
  <g transform="translate(264, 286)">
    <!-- SC Logo heading -->
    <g transform="scale(1.1)">
      <path d="M23.999 14.165c-.052 1.796-1.612 3.169-3.4 3.169h-8.18a.68.68 0 0 1-.675-.683V7.862a.747.747 0 0 1 .452-.724s.75-.513 2.333-.513a5.364 5.364 0 0 1 2.763.755 5.433 5.433 0 0 1 2.57 3.54c.282-.08.574-.121.868-.12.884 0 1.73.358 2.347.992s.948 1.49.922 2.373ZM10.721 8.421c.247 2.98.427 5.697 0 8.672a.264.264 0 0 1-.53 0c-.395-2.946-.22-5.718 0-8.672a.264.264 0 0 1 .53 0ZM9.072 9.448c.285 2.659.37 4.986-.006 7.655a.277.277 0 0 1-.55 0c-.331-2.63-.256-5.02 0-7.655a.277.277 0 0 1 .556 0Zm-1.663-.257c.27 2.726.39 5.171 0 7.904a.266.266 0 0 1-.532 0c-.38-2.69-.257-5.21 0-7.904a.266.266 0 0 1 .532 0Zm-1.647.77a26.108 26.108 0 0 1-.008 7.147.272.272 0 0 1-.542 0 27.955 27.955 0 0 1 0-7.147.275.275 0 0 1 .55 0Zm-1.67 1.769c.421 1.865.228 3.5-.029 5.388a.257.257 0 0 1-.514 0c-.21-1.858-.398-3.549 0-5.389a.272.272 0 0 1 .543 0Zm-1.655-.273c.388 1.897.26 3.508-.01 5.412-.026.28-.514.283-.54 0-.244-1.878-.347-3.54-.01-5.412a.283.283 0 0 1 .56 0Zm-1.668.911c.4 1.268.257 2.292-.026 3.572a.257.257 0 0 1-.514 0c-.241-1.262-.354-2.312-.023-3.572a.283.283 0 0 1 .563 0Z" fill="#ff5500"/>
    </g>
    <text x="32" y="18" font-family="sans-serif" font-size="20" font-weight="700" fill="#fff">SoundCloud</text>
  </g>

  <!-- SC track 1 -->
  <rect x="264" y="316" width="40" height="40" rx="3" fill="#e67e22"/>
  <text x="284" y="341" font-family="sans-serif" font-size="16" fill="#fff" text-anchor="middle" opacity="0.7">♪</text>
  <!-- SC badge -->
  <g transform="translate(312, 320)">
    <path d="M23.999 14.165c-.052 1.796-1.612 3.169-3.4 3.169h-8.18a.68.68 0 0 1-.675-.683V7.862a.747.747 0 0 1 .452-.724s.75-.513 2.333-.513a5.364 5.364 0 0 1 2.763.755 5.433 5.433 0 0 1 2.57 3.54c.282-.08.574-.121.868-.12.884 0 1.73.358 2.347.992s.948 1.49.922 2.373Z" fill="#ff5500" transform="scale(0.58)"/>
  </g>
  <text x="328" y="329" font-family="sans-serif" font-size="13" font-weight="600" fill="#fff">midnight melancholy</text>
  <text x="328" y="347" font-family="sans-serif" font-size="11" fill="#b3b3b3">sleepymountain</text>
  <text x="770" y="329" font-family="sans-serif" font-size="11" fill="#b3b3b3" text-anchor="end">7:15</text>

  <!-- SC track 2 -->
  <rect x="264" y="366" width="40" height="40" rx="3" fill="#2c3e50"/>
  <text x="284" y="391" font-family="sans-serif" font-size="16" fill="#fff" text-anchor="middle" opacity="0.7">♪</text>
  <g transform="translate(312, 370)">
    <path d="M23.999 14.165c-.052 1.796-1.612 3.169-3.4 3.169h-8.18a.68.68 0 0 1-.675-.683V7.862a.747.747 0 0 1 .452-.724s.75-.513 2.333-.513a5.364 5.364 0 0 1 2.763.755 5.433 5.433 0 0 1 2.57 3.54c.282-.08.574-.121.868-.12.884 0 1.73.358 2.347.992s.948 1.49.922 2.373Z" fill="#ff5500" transform="scale(0.58)"/>
  </g>
  <text x="328" y="379" font-family="sans-serif" font-size="13" font-weight="600" fill="#fff">Waves (study mix)</text>
  <text x="328" y="397" font-family="sans-serif" font-size="11" fill="#b3b3b3">nujabes edit</text>
  <text x="770" y="379" font-family="sans-serif" font-size="11" fill="#b3b3b3" text-anchor="end">5:33</text>

  <!-- SC track 3 -->
  <rect x="264" y="416" width="40" height="40" rx="3" fill="#1abc9c"/>
  <text x="284" y="441" font-family="sans-serif" font-size="16" fill="#fff" text-anchor="middle" opacity="0.7">♪</text>
  <g transform="translate(312, 420)">
    <path d="M23.999 14.165c-.052 1.796-1.612 3.169-3.4 3.169h-8.18a.68.68 0 0 1-.675-.683V7.862a.747.747 0 0 1 .452-.724s.75-.513 2.333-.513a5.364 5.364 0 0 1 2.763.755 5.433 5.433 0 0 1 2.57 3.54c.282-.08.574-.121.868-.12.884 0 1.73.358 2.347.992s.948 1.49.922 2.373Z" fill="#ff5500" transform="scale(0.58)"/>
  </g>
  <text x="328" y="429" font-family="sans-serif" font-size="13" font-weight="600" fill="#fff">lo-fi for late nights</text>
  <text x="328" y="447" font-family="sans-serif" font-size="11" fill="#b3b3b3">collegestudent</text>
  <text x="770" y="429" font-family="sans-serif" font-size="11" fill="#b3b3b3" text-anchor="end">4:48</text>

  <!-- ── Spicetify badge bottom right ── -->
  <rect x="624" y="467" width="160" height="26" rx="13" fill="#1a1a1a"/>
  <text x="704" y="484" font-family="sans-serif" font-size="11" fill="#b3b3b3" text-anchor="middle">Spicetify Custom App</text>
</svg>
